<svg xmlns="http://www.w3.org/2000/svg" version="1.1">
  <symbol id="arrow" viewBox="0 0 360.2 512">
    <path d="M5.5,167.2c-7.2,7-7.2,18.6,0,25.8c7,7,18.6,7,25.5,0L162.4,62.2v431.7C161.9,504,169.9,512,180,512s18.3-8,18.4-18.1V62.2  L328.9,193c7.2,7,18.8,7,25.8,0c7.2-7.2,7.2-18.8,0-25.8L192.9,5.4c-7-7.2-18.6-7.2-25.5,0L5.5,167.2z"/>
  </symbol>
  <symbol id="arrow-dropdown" viewBox="0 0 512 393.2">
    <path d="M256 393.3L0 0h512z"/>
  </symbol>
  <symbol id="arrow-slider" viewBox="0 0 52 100">
    <path d="M2 0L0 2l48.1 48L0 98l2 2 50-50"/>
  </symbol>
  <symbol id="binocular" viewBox="0 0 512 435">
    <path d="M503.1,280l-67.6-177.8c-0.2-0.4-0.4-0.8-0.6-1.2c-0.1-0.6-0.2-1.3-0.4-1.9c-7.3-20.3-23-36.1-42.3-43.9  c-0.1-0.3-0.2-0.6-0.3-0.9l-10.5-27.5c0-0.1-0.1-0.2-0.1-0.3c-0.1-0.3-0.1-0.7-0.3-1c-5.4-15.2-20-25.4-36.2-25.4  c-21.1,0-38.4,17.3-38.4,38.4v33.3c0,1.5,0.5,3,1.2,4.2c-11.1,13-17.8,29.9-17.8,48.3v21.4h-67.6v-20.5c0.1-0.3,0.1-0.7,0.1-1  c0-18.4-6.7-35.3-17.8-48.3c0.7-1.2,1.1-2.6,1.1-4.1V38.5c0-21.1-17.2-38.4-38.4-38.4c-16.1,0-30.6,10.2-36.1,25.4  c-0.1,0.3-0.2,0.6-0.3,0.9c-0.1,0.2-0.2,0.4-0.2,0.5l-10.5,27.4c-0.1,0.3-0.2,0.6-0.3,0.9C100.6,63,84.9,78.7,77.7,99  c-0.2,0.7-0.4,1.4-0.4,2.1c-0.2,0.4-0.4,0.7-0.6,1.1L10.2,277.2c-6.6,14.2-10.3,30-10.3,46.6C-0.1,385.1,49.8,435,111,435  c61.3,0,111.1-49.7,111.2-111c0,0,0,0,0,0v-82.6h67.6v82.5c0,0,0,0,0,0s0,0,0,0v0.1c0,0,0,0,0,0c0.1,61.1,49.9,111,111.2,111  c61.3,0,111.1-49.8,111.1-111.1C512.1,308.3,508.9,293.5,503.1,280z M145.1,32.4c0.1-0.4,0.3-0.8,0.3-1.2c0.1-0.1,0.1-0.3,0.2-0.4  c3.3-9.1,12-15.2,21.6-15.2c12.7,0,23,10.3,23,22.9V63c-12-8.4-26.7-13.3-42.4-13.3c-3.2,0-6.4,0.2-9.5,0.6L145.1,32.4z M111,419.4  c-52.7,0-95.6-42.8-95.6-95.5c0-10.3,1.6-20.2,4.7-29.5c0.1-0.2,0.2-0.3,0.2-0.5l3.4-9c14.9-33.3,48.5-56.6,87.3-56.6  c52.8,0,95.7,42.9,95.6,95.6C206.6,376.5,163.7,419.4,111,419.4z M111,212.7c-26,0-50,9-69,24.1l49.2-129.1c0.3-0.8,0.5-1.6,0.5-2.3  c0.2-0.3,0.3-0.7,0.5-1.1c8.4-23.3,30.7-39,55.5-39c32.6,0,59,26.4,59,59v143C187.3,234.6,151.7,212.7,111,212.7z M289.8,225.9  h-67.6v-64.7h67.6V225.9z M344.8,15.6c9.6,0,18.3,6.1,21.6,15.2c0.1,0.2,0.1,0.3,0.2,0.5c0.1,0.3,0.2,0.7,0.3,1l6.9,18.1  c-3.1-0.4-6.3-0.6-9.5-0.6c-15.7,0-30.4,4.9-42.4,13.3V38.5C321.9,25.9,332.2,15.6,344.8,15.6z M305.3,124.3c0-32.5,26.5-59,59-59  c24.9,0,47.2,15.7,55.6,39c0.2,0.5,0.4,0.9,0.6,1.4c0.1,0.7,0.2,1.4,0.5,2l49.1,129.2c-19-15.1-43-24.2-69.1-24.2  c-40.7,0-76.3,22-95.7,54.6L305.3,124.3C305.3,124.3,305.3,124.3,305.3,124.3z M401,419.4c-52.7,0-95.6-42.8-95.6-95.5  s42.9-95.6,95.6-95.6c39.3,0,73.1,23.8,87.8,57.8l3,7.9c0,0,0,0,0,0c3.1,9.4,4.8,19.4,4.8,29.9C496.6,376.5,453.7,419.4,401,419.4z"/>
  </symbol>
  <symbol id="close" viewBox="0 0 512 512">
    <path d="M256 0C114.6 0 0 114.6 0 256s114.6 256 256 256 256-114.6 256-256S397.4 0 256 0zm164.8 420.8c-21.4 21.4-46.3 38.2-74.1 49.9C318 482.8 287.5 489 256 489s-62-6.2-90.7-18.3c-27.7-11.7-52.7-28.5-74.1-49.9-21.4-21.4-38.2-46.3-49.9-74.1C29.2 318 23 287.5 23 256s6.2-62 18.3-90.7c11.7-27.7 28.5-52.7 49.9-74.1 21.4-21.4 46.3-38.2 74.1-49.9C194 29.2 224.5 23 256 23s62 6.2 90.7 18.3c27.7 11.7 52.7 28.5 74.1 49.9 21.4 21.4 38.2 46.3 49.9 74.1C482.8 194 489 224.5 489 256s-6.2 62-18.3 90.7c-11.7 27.7-28.5 52.6-49.9 74.1z M391.1 120.9c-5.2-5.2-13.6-5.2-18.8 0L256 237.2 139.8 120.9c-5.2-5.2-13.6-5.2-18.8 0-5.2 5.2-5.2 13.6 0 18.8L237.2 256 121 372.2c-5.2 5.2-5.2 13.6 0 18.8 2.6 2.6 6 3.9 9.4 3.9 3.4 0 6.8-1.3 9.4-3.9L256 274.8l116.3 116.3c2.6 2.6 6 3.9 9.4 3.9 3.4 0 6.8-1.3 9.4-3.9 5.2-5.2 5.2-13.6 0-18.8L274.8 256l116.3-116.3c5.2-5.2 5.2-13.6 0-18.8z"/>
  </symbol>
  <symbol id="menu" viewBox="0 0 512 355.2">
    <path d="M491.3,156.9H20.7C9.3,156.9,0,166.2,0,177.6c0,11.4,9.3,20.7,20.7,20.7h470.6c11.4,0,20.7-9.3,20.7-20.7 C512,166.2,502.7,156.9,491.3,156.9z M20.7,41.4h470.6c11.4,0,20.7-9.3,20.7-20.7c0-11.4-9.3-20.7-20.7-20.7H20.7C9.3,0.1,0,9.3,0,20.7 C0,32.2,9.3,41.4,20.7,41.4z M491.3,313.8H20.7C9.3,313.8,0,323.1,0,334.5s9.3,20.7,20.7,20.7h470.6c11.4,0,20.7-9.3,20.7-20.7S502.7,313.8,491.3,313.8 z"/>
  </symbol>
  <symbol id="search" viewBox="0 0 512 512">
    <path d="M505.7,475.6L382.6,352.5c30.5-37.2,48.9-84.8,48.9-136.8C431.5,96.7,334.9,0,215.8,0C96.5,0,0,96.7,0,215.8   s96.5,215.8,215.8,215.8c51.9,0,99.5-18.3,136.7-48.8l123.1,123c8.4,8.4,21.8,8.4,30.2,0C514.1,497.5,514.1,483.9,505.7,475.6z M215.8,388.6c-95.4,0-172.9-77.5-172.9-172.8S120.4,42.8,215.8,42.8c95.3,0,172.9,77.6,172.9,172.9S311.1,388.6,215.8,388.6z"/>
  </symbol>
  <symbol id="share" viewBox="0 0 482.6 512">
    <path d="M391 328.9c-29.4 0-55.7 14-72.5 35.7L177.8 286c3.3-9.5 5.1-19.7 5.1-30.2 0-10.6-1.8-20.7-5.2-30.3l140.6-78.4c16.7 21.8 43.1 35.9 72.6 35.9 50.4 0 91.5-41 91.5-91.5S441.4 0 390.9 0s-91.6 41-91.6 91.5c0 10.6 1.8 20.8 5.2 30.3l-140.4 78.5c-16.7-21.9-43.1-35.9-72.6-35.9-50.4 0-91.5 41-91.5 91.5s41.1 91.5 91.6 91.5c29.6 0 55.9-14.1 72.7-36L304.9 390c-3.4 9.6-5.3 19.9-5.3 30.5 0 50.4 41 91.5 91.5 91.5s91.5-41 91.5-91.5-41.1-91.6-91.6-91.6zm0-300.1c34.7 0 62.8 28.2 62.8 62.8s-28.2 62.8-62.8 62.8-62.8-28.2-62.8-62.8 28.2-62.8 62.8-62.8zM91.6 318.7c-34.7 0-62.8-28.2-62.8-62.8s28.2-62.8 62.8-62.8 62.8 28.2 62.8 62.8-28.2 62.8-62.8 62.8zM391 483.2c-34.7 0-62.8-28.2-62.8-62.8s28.2-62.8 62.8-62.8 62.8 28.2 62.8 62.8-28.2 62.8-62.8 62.8z"/>
  </symbol>
  <symbol id="facebook" viewBox="0 0 512 512">
    <path d="M222.6,178.7c0,6.4,0,34.7,0,34.7h-25.5v42.5h25.5v126.2h52.3V255.9h35.1c0,0,3.3-20.4,4.9-42.6c-4.6,0-39.8,0-39.8,0    s0-24.7,0-29c0-4.3,5.7-10.2,11.3-10.2c5.6,0,17.5,0,28.5,0c0-5.8,0-25.8,0-44.2c-14.7,0-31.4,0-38.7,0 C221.3,129.8,222.6,172.4,222.6,178.7z"/>
  </symbol>
  <symbol id="mail" viewBox="0 0 512 512">
    <path d="M370.6,150.1H141.4c-13.5,0-24.4,11-24.4,24.4v163c0,13.4,10.9,24.4,24.4,24.4h229.2c13.4,0,24.4-10.9,24.4-24.4v-163     C395.1,161.1,384.1,150.1,370.6,150.1z M367.2,166.4L256.5,277.1L144.8,166.4H367.2z M133.2,334.1V177.8l78.5,77.8L133.2,334.1z M144.8,345.6l78.5-78.5l27.5,27.3c3.2,3.2,8.3,3.1,11.5,0l26.8-26.8l78.1,78.1H144.8z M378.8,334.1L300.7,256l78.1-78.1V334.1z"/>
  </symbol>
  <symbol id="twitter" viewBox="0 0 512 512">
    <path d="M377.7,155c-10.2,6.1-21.5,10.4-33.6,12.8c-9.6-10.3-23.4-16.7-38.6-16.7c-29.2,0-52.8,23.7-52.8,52.8    c0,4.1,0.5,8.2,1.4,12c-43.9-2.2-82.8-23.2-108.9-55.2c-4.6,7.8-7.1,16.9-7.1,26.6c0,18.3,9.3,34.5,23.5,44    c-8.7-0.3-16.8-2.7-23.9-6.6v0.7c0,25.6,18.2,46.9,42.4,51.8c-4.4,1.2-9.1,1.9-13.9,1.9c-3.4,0-6.7-0.3-9.9-1    c6.7,21,26.2,36.3,49.3,36.7c-18.1,14.2-40.9,22.6-65.6,22.6c-4.3,0-8.5-0.3-12.6-0.7c23.4,15,51.1,23.8,81,23.8 c97.2,0,150.3-80.5,150.3-150.3l-0.2-6.8c10.4-7.4,19.4-16.7,26.4-27.3c-9.5,4.2-19.6,7-30.3,8.3 C365.3,177.6,373.7,167.3,377.7,155z"/>
  </symbol>
  <!-- logos -->
  <symbol id="carver" viewBox="0 0 512 36.9">
    <path d="M8.2.2C7.7.2.8.3 0 8.9v19.6s.6 8.2 8.3 8.7h48s6.3.2 8.5-7.9H13.4V8.2h51.3S63.6.7 56.3.2H8.2zm93.9 22.4l16.4-17.1 16.6 17.2-33-.1zM110.7.2l-35.4 37h12.9l8.7-9.1h43.2l8.8 9.1h12.9L126.4.2h-15.7zm214 0l-27.8 30-27.8-30h-14.8l34.3 37h16.6l34.3-37h-14.8zm27.5 0v37h61.1c.5-6.3-5.9-6.8-5.9-6.8H366v-10h27.6V15H366V7h41.4c6.9-.5 6-6.9 6-6.9h-61.2v.1zM450.7 7h36.7s1.9.1 1.9 1.9v6.2s-.2 1.9-1.9 1.9h-36.7V7zM437.1.2v37h13.6v-14h15.7l26.7 13.9H512l-26.6-13.9h7.8c7.6-.3 8.6-8.8 8.6-8.8v-6c-.5-7.3-8.9-8.3-8.9-8.3h-55.8v.1zM191.7 7h36.7c2 .3 1.9 1.7 1.9 1.7v6.4c-.4 1.9-1.8 1.8-1.8 1.8h-36.8V7zM178.1.1v37h13.6V23.2h15.7l26.7 14h18.8l-26.6-14h8c7.3-.5 8.3-8.7 8.3-8.7V8.7c-.2-7.5-8.8-8.6-8.8-8.6h-55.7z"/>
  </symbol>
  <symbol id="marquis" viewBox="0 0 512 43.6">
    <path d="M468 15.4c2.6-2.9 4.9-2.9 5.6-2.9h38.3V8.1h-47.3c-8.6 0-10.7 8.6-10.7 8.6s37.9 7.8 45 9.4c0 4.1-6.2 4-6.2 4h-20.4s-5.8.1-6.2-3.7h-12.7c.4 1.5 1.2 3.6 2.9 5.4h-24.7V8.1h-14.1v23.8h-27.4c2.6-2.5 4.2-6.1 4.2-10V8.1h-6.5v13.8c0 4.1-3.3 7.5-7.5 7.5h-24c-4.1 0-7.2-3.3-7.2-7.5V8.1h-14.5v13.8c0 3.9 1.5 7.4 4 10h-28.4c3.1-2.1 5.3-6.5 5.3-11.3 0-6.9-5-12.4-10.3-12.4h-37.7c-6.3 0-11.4 5.6-11.4 12.4 0 4.9 2.6 9.2 6.3 11.3h-26.3L225.7 26c.7-.1 11.2-1.8 11.2-9.7 0-8.1-9.7-8.1-9.7-8.1h-48.5V32h-17.5l-23-23.9h-11.9l-24.4 23.8H84.3V-.3L49.6 12.5 6.2-.1v32H0v3.7h28.1v-3.7h-6.5V12.2l27.9 8.1L74.9 11v20.9h-6v3.7h55.3v-3.7h-6.6l17.9-17.4 17 17.4H147v3.7h51.5v-3.7h-5.6V12.2h24.6c3.4 0 6.2 1.2 6.1 4.9-.1 3.2-2.8 4.9-6.2 4.9h-7.1v3h1.5c.4 0 .9.1 1.1.3l18.5 10.4h69.9l8.3 8.3 4.3-4.3-4-4h189.3c11.9 0 12.8-11 12.8-11s-37.9-7.9-44-9.3zM303.6 29.3l-6.3-6.3-4.3 4.3 2.9 2.9h-18c-4.5 0-8.1-4-8.1-9s3.6-9 8.1-9h22c4.9 0 8.8 4 8.8 9 .1 3.6-2 6.7-5.1 8.1z"/>
  </symbol>
  <symbol id="larson" viewBox="0 0 512 46.9">
    <path d="M28 6.8c-7.4 1-14.8 0-21.2-.7l10.1 21.3L0 46.4c24.9 3.9 49.2-12.3 70.9-4.2L94.2 7.7C74.7-7.6 47.6 4.3 28 6.8zM35.4 17c2.3-3.2 4.9-6 8.8-7.4 3-1.1 7.9-1.5 10.9-2.1 3.6-.7 6.2-1.9 6.2-1.9l-4 5.4c-2.2 2.8-4.9 3.8-9.8 5-7.3 1.9-11.3 2.5-16 6.2l3.9-5.2zm-8.1 10.9c2.2-3 6.5-5.6 10-7 3.6-1.4 7-2.2 9.9-2.9 2.7-.6 6.4-2.1 6.4-2.1l-3.2 4.2c-2.2 3-4.8 5.4-9.9 6.5-4.2 1-9.9 1.7-17.4 6.6l4.2-5.3zM61 32.6c-2.3 1.7-7.3 2.8-9.9 2.3-14.2-2.6-22.8-1.4-32.6 4.6 8.3-11.1 29.8-12.2 35.8-12.9 5.8-.7 14.1-1.1 14.1-1.1s-2 3.9-7.4 7.1zm443.7-27h-47.1l-27.5 39.9h11.4l21.2-30.9h36.1l-21.2 30.9H489s19.7-28.6 20.6-30 3.4-4.2 1.8-7.3c-1.1-2-3.3-2.6-6.7-2.6zM407 45.5h-46.3l4.9-7.4c.4-.7 10.6-16 15.3-22.7 5.9-8.3 11.4-9.9 18.8-9.9H446l-4.9 7.4c-.4.7-10.6 16.1-15.3 22.7-5.8 8.3-11.3 9.9-18.8 9.9zm-28.8-9h28.5c4.9 0 7.5-1 11.3-6.4 2.5-3.6 7.2-10.5 10.6-15.6h-28.5c-4.9 0-7.6 1.1-11.4 6.5-2.5 3.6-7.1 10.4-10.5 15.5zM338 45.4h-46.9l6-9h41c5.5 0 7.4-2 8.8-3.7.5-.7 1.6-1.9 2.1-2.5L312.6 28c-2.2-.2-4-.9-4.7-2.8-.8-2.1-.6-3.6.8-5.6.4-.5 4.4-5.6 5.8-7.4 3.7-4.9 8.4-7 16-7h47l-6.3 9.3h-41.1c-5.3-.3-7.2 1.6-8.5 3.4-.5.7-1.9 2.1-1.9 2.1l35.7 2c3.8.4 5 1.6 5.7 3.1.7 1.7.8 3.5-1.9 6.6-1.1 1.3-3.1 3.8-5.3 6.7-3.6 5-8.4 7-15.9 7zm-97.2.1h-11.5c.5-.8 15.2-22.7 19.1-28.3 5.9-8.6 16.3-11.6 24-11.6h37l-6.1 8.9h-30.4c-5.1 0-12.3 2-16.2 7.5-3.9 5.6-15.8 23.3-15.9 23.5zm-36-39.9c-7.7 0-20.5 3-26.4 11.6-3.9 5.6-18.6 27.5-19.1 28.3h11.5c.1-.1 4.7-6.9 9-13.3h35.9l-9.2 13.3h11.4l27.8-39.9h-40.9zm-19.2 17.9l.6-.9c3.9-5.5 11.6-8.1 16.6-8.1h24.9l-6.2 9h-35.9zm-81.1 21.9c-.8 0-2.9 0-4.1-.6-1.4-.8-2.3-2.1-2.6-3.6-.3-1.5.5-3.4 1.4-4.7.6-.9 14.4-21.9 20.3-30.9h11.3c-2.6 3.9-14.1 21.6-20.2 30.8h47l-6 8.9h-46.9c-.1.1-.1.1-.2.1z"/>
  </symbol>
  <symbol id="larson-fx" viewBox="0 0 512 57">
    <path d="M33.2 38h-.6c-6.3 0-13.4-.1-20.1-.1-.1 0-.1 0-.2-.1v-.2c.6-.8 2.1-3.1 4.7-7 3.2-4.7 7.6-11.2 13-19.1v-.2c0-.1-.1-.1-.2-.1s-9.5-.1-9.6-.1-.1 0-.2.1c-2.7 4-5.5 8-8.1 11.9-2.7 4-8.4 12.3-8.5 12.5-1.6 2-4.9 6.3-3 9 1.1 1.1 2.8 1.8 5 1.9 6.5-.1 23.8-.1 42.2 0 .1 0 .1 0 .2-.1.8-1.3 1.7-2.5 2.6-3.8 1.3-1.8 2.3-3.3 2.8-4.2v-.2c.2-.1.1-.1 0-.1-6.6 0-13.4-.1-20-.1zm85.6-9.5c3.9-5.7 7.9-11.4 11.7-16.9v-.2c0-.1-.1-.1-.2-.1-4.8-.1-10.8-.1-23.8-.1H93.1C81.5 12.3 75.8 16.7 70 23.9c-3.5 4.3-12.9 18.5-15.3 22.2v.2c0 .1.1.1.2.1h9.6c.1 0 .1 0 .2-.1 2.4-3.4 4.6-6.5 6.4-9.1 1.3-1.9 2.4-3.4 3.2-4.5 0-.1.1-.1.2-.1h30.8s.1.1.2.1v.2c-1.1 1.6-2.1 3.2-3.1 4.7-2.3 3.4-4.2 6.3-5.5 8.5v.2c0 .1.1.1.2.1 1.4 0 2.6 0 3.6-.1 2.1 0 3.7-.1 5.9 0 .1 0 .1 0 .2-.1 3.7-5.3 7.5-10.8 11.2-16.2l.8-1.5zm-7.8-3.6H80.4s6.4-5.3 11.9-5.3h22.4l-3.7 5.3zm72.3-5.4c.9-1.3 1.9-2.7 2.8-4.1.9-1.3 1.7-2.6 2.6-3.8 0-.1.1-.1 0-.2 0-.1-.1-.1-.2-.1-3.7-.1-9-.1-16.2-.1-5.6 0-12.6 0-20.8-.1-10 1.1-16.6 4.9-23.5 13.5-.9 1.1-7.5 11.1-11.5 17-1.3 1.9-2.4 3.5-2.9 4.4v.2c0 .1.1.1.2.1 1.5 0 3.1 0 4.7.1 1.6 0 3.4.1 4.9.1.1 0 .1 0 .2-.1 2.3-3.8 7.5-11.4 12.8-18.9 4.9-6.3 11.4-7.7 14.9-7.9 6-.2 18.5-.1 32-.1-.1.1 0 .1 0 0zm112.2 7.4c1.7-2.4 3.5-5.1 5.2-7.8 1.7-2.5 3.4-5.1 5-7.4v-.2s-.1-.1-.2-.1c-5.1-.1-33.1-.2-40.7-.1-9.3.4-14.1 4.7-16.5 8.2-12.2 17.7-17.8 26.1-18.1 26.4v.2c0 .1.1.1.2.1.4 0 30.2.2 30.5.2h2.4c5.6.1 11.3.1 15.2-1.5 6.9-2.9 10.8-8.9 14.6-14.8.9-.9 1.7-2.1 2.4-3.2zm-14.8 6.6s-1.9 4.5-6.9 4.5H246l9.9-14.6s1.8-4 9.3-3.9c7.4.1 25.3 0 25.3 0l-9.8 14zm79.4-15.9c.9-1.6.5-3.1.1-4-.7-1.5-2.2-2.2-4.9-2.4-1.1-.1-2.3 0-3.5 0-.9 0-1.9.1-2.8.1h-36.3c-.1 0-.1 0-.2.1-4 5.8-8 11.8-12 17.6-3.9 5.8-7.9 11.7-11.9 17.4v.2c0 .1.1.1.2.1 1.5 0 3.1 0 4.7-.1s3.3-.1 4.9-.1c.1 0 .1 0 .2-.1 3.1-4.4 6.1-8.9 9.1-13.3s6-8.9 9.1-13.3c0-.1.1-.1.2-.1 22.6.2 28.3.1 30.9.1.1 0 .1 0 .2.1v.2c-3.8 5.9-10.7 16-17.6 26.1v.2c0 .1.1.1.2.1 1.7-.1 4.4 0 6.6 0h3c.1 0 .1 0 .2-.1 5.6-8 10.6-15.5 14.2-20.9 2.7-4 4.6-6.9 5.4-7.9zM233.7 31.4c.4-.9.1-2.5-.7-3.6s-2.1-1.8-3.7-1.9c-4.3-.3-10.2-.6-15.8-1-5.6-.3-11.4-.7-15.7-1-.3 0-.7-.4-.4-.7.9-1.4 2.7-2.7 4.3-3.2 1.9-.7 5.6-.5 8.6-.4.9 0 1.8.1 2.5.1 3.8 0 11.8 0 28.2-.1h.8c.1 0 .1 0 .2-.1 1.9-2.7 4.3-6.2 5.3-8v-.2c0-.1-.1-.1-.2-.1-9.9-.1-18.6-.1-28.7 0h-.1c-4.1 0-8.4 0-13.1.1-.1 0-.2 0-.4.1-5.8.8-10.4 3-13.5 6.6-1.3 1.2-3.9 5.7-4.2 6.1-1.3 1.7-2.6 3.4-1 5.7 1.2 1.7 2.8 2 5.4 2.2.4 0 3.3.1 3.3.1 6 .4 11.1.7 14.9.9 1.2.1 2.4.1 3.4.2.9 0 1.8.1 2.5.1 3.3.2 5.3.3 5.9.5.1 0 .1.1.1.1v.2c-2.5 4.4-6.5 4.3-12 4.2-.9 0-1.8-.1-2.8-.1-4.9 0-9.9 0-14.8.1h-.1c-4.8 0-9.8.1-14.7.1-.1 0-.1 0-.2.1l-5.4 7.9v.2c0 .1.1.1.2.1h19.7c8.4 0 17.1-.1 19.9 0 6.8-.2 12.2-2.5 16.6-7.2 1.2-1.5 3.4-4.7 5.4-7.5 0-.2.3-.6.3-.6zm179.9-2.9l-1-4.8h-27.3l9-10.8c3.4-2.7 7.3-3.9 11.8-3.6h25l-3-9.2h-20.3c-4.1 0-8.2.3-12.2.8-7.2 1.8-13 5.1-17.4 9.9l-23.6 35-7.5 11.2H363l6.7-10.2.2-.3 10.4-15h28.5l4.8-3z M512 .2h-22.3l-24.6 14.5-9.9 5.9L448.4.2h-16.1l9.4 28.4-48 28.4 22.3-.2 19.8-11.7 9.7-5.7 5.7 17.6h16.5L459 31.5z"/>
  </symbol>
  <symbol id="striper" viewBox="0 0 512 134.3">
    <path d="M67.7 31.5c.1.1.2.3.2.4 0 .3-.3.5-.6.4-.3 0-.5-.3-.4-.6 0-.2.2-.3.3-.4-.6 0-1.2.4-1.2 1.1-.1.7.4 1.3 1.1 1.4.7.1 1.3-.4 1.4-1 0-.5-.3-1-.8-1.3zm-2.2 62.2c-.3-.2-.7-.5-1.1-.7.4.2.8.5 1.1.7zM47.4 45.4c-.2.2-.3.3-.4.5.3-.3.4-.5.4-.5zm-19.6-1c1-.7 1.9-1.4 2.9-2-.8-2.1-1.3-5.6-1-7.9l-.3.3c-.9.8-1.7 1.5-2.5 2.3-.2 1.1-.8 4.4.6 7.4.1-.1.2-.1.3-.1z M27.3 44.4c-.8-1.7-1.6-4.2-1.7-6-.8.9-1.5 1.8-2.1 2.7 0 .6 0 1.9.5 3.4 1.1-.1 2.2-.2 3.3-.1zm-4.6-2.2c-.5.8-1 1.6-1.4 2.4.7-.1 1.5-.1 2.3-.1-.4-.9-.7-1.7-.9-2.3zm-3.8 8.4h2.8c.6 0 1.2.1 1.8.2 5 .7 17.3 3.2 24.2-3.9-1.7.9-3.8 2.2-.7-1.1-.4.2-1.1.5-2.3.3-1.7-.2-9.3-1.2-16.9-1.2h-6c-1 .1-2 .2-2.9.3C9.4 46.5 2.8 47.8 0 53c1.4-.5 10.7-2.5 18.9-2.4zm20.9-10.2c-.3-.8-.5-1.5-.6-2.3-.1 0-.2.1-.2.1.1.9.4 1.7.8 2.2zm-3.4 2.7c-.6-1.1-.9-2.2-1.2-3.3-.1 0-.2.1-.2.1.4 1.5.9 2.7 1.4 3.2zm-5.5-.9c-.1 0-.1.1-.2.1.3.8.6 1.3.9 1.7-.3-.6-.5-1.2-.7-1.8zm12.5 33.6s.8-1.4 2-3.4l-.2-.2c-1 2.1-1.8 3.6-1.8 3.6zM45 63.6l-3.2 3.1c1 1.9 2.2 3.7 3.4 5.4l2-3.8c-1-1.9-1.7-3.5-2.2-4.7z M34.1 31c.9-1 2.2-1.8 2.2-1.8s-2.1 5.2-1 10.5c1.3-.6 2.5-1.2 3.7-1.6-.6-2.8-.6-7.2.4-10 1.3-.8 3-1.4 3-1.4s-4.1 5.4-3.1 11.3c2.3-.9 4.2-1.5 5.1-1.7.1 0 .2 0 .3-.1.1 0 .2 0 .3-.1l4.2-1s1.1-2.6 7.8-2c2.9-1.5 3.7-1.8 4.5-2.2.8-.3 2.3-1.4 2.1.9-.2 1.3.5 1.8 1 2.3-.5-1.3-.7-3.2 1.2-4.5.7-.5 2.4-1.1 4.1-1.3 1.5-.2 2.8-.2 4.8-.6-.1 0-.1 0-.2.1-1.5.5-3.2 1.3-4 1.7-.8.4-1 .6-2.1.5s-1.5.1-2.1.5c-2.8 1.7-.7 3.4-.7 3.4 2.2 2.2 4-1.1 4.9-2 .9-.9 2-1.6 2.3-1.8-1.4.5-1.6.9-2.2 1.1-.7.2-.6-.4-.4-.7 1.2-1.3 3.5-2.3 4.8-2.8.3-.1.6-.2 1-.3 2.5-.7 3.8-1.6 6-1.5 1.2.3 1.1 1.3-2.3 4-4.6 3.3-8.1 7.8-10.2 10.3-3.1 3.6-3.4 3.5-4.3 3.6s-1.1-1.1-1.1-1.1-.4.1-.9.1c-2.5.2-3.1-2.9-3.2-3.6.1 4.7 3.2 4 3.7 4 1 2.1 3.6.4 4 0 9.9-4.9 16.2-5 17.7-5.2-2.4.6-8.4 4.5-9.9 5.6-1.4 1-5.7 2.9-6.3 3.1-3.5 1.4-4.1-.2-4.1-.2s-.3.2-.9.3c-10.1.7-8.3-10.2-8.2-11.8-2.3 15 8.6 12.5 9 12.2.9 1.4 3.5.1 3.5.1l-.3.3c-4.9 4.2-7.3 4.3-9.2 4.2-10.4-.8-10.3-10-10.5-13.6-1.2 14.5 10.7 14.2 11.8 14.2-.1.5.4.5 1 .9-.1.1-.3.2-.5.3-1.5 1-3.7 2.3-6.6 3.7-.5.3-1 .5-1.6.8-1.2.6-2.6 1.2-4 1.9 2.3-2.3 4-4.1 4.1-4.4.6-1-.5-.8-1.2-.3-.2.2-2.4 2.6-5.2 5.6-.7.3-1.4.6-2.2.9-8.3 3.3-7.8 5.7-7.5 7.5-.2-2.7 1.8-4.3 3.8-5.3.3.8.6 1.5 1 2.2l3.1-3.4c-.1-.1-.1-.3-.1-.4.2-.1.5-.2.7-.3l-.6.6.3.8 2.2-2.2c1.7-.7 3.3-1.4 4.8-2.1-1.4 2.8-3.2 6.1-4.7 9.1l.3.5c2-3.3 4.2-7.2 6-10.3.5-.2 1-.5 1.4-.7 3.1 2.3 9.1 6.4 12.2 8.6 2.5 1.8 6.8 5.8 10.5 9.1l.1.1c.7.6 1.3 1.2 2 1.8l.2.2.2.2.3.3.1.1.3.3.3.3c.9.8 1.7 1.5 2.1 1.9-.6-.9-1.2-1.7-1.7-2.5-.4-.6-.8-1.2-1.2-1.7-.5-.7-1-1.4-1.6-2.1-.1-.1-.1-.2-.2-.3-7.8-10.5-14.7-17.5-17.1-19.9.4-.3.7-.5.8-.6 4 1.8 10.1-7.7 10.1-7.7s.4.1 4.2-2.4c3.8-2.6 9.9-5.4 12.8-6.1-4.4-.1-11.1 1.4-13.2 2 1.1-3.6 4.1-7 6.6-9.5 3.2-2.5 9.2-6.7 31.2-16.5L74.5 26.1s-15-1-23.6 3.7c-3 1.6-5.2 3.1-6.7 4.2 9.6-8.7 18.2-8.3 18.2-8.3s-5-1.7-6.9-2.3c-1.5-.5-3.1-.8-4.5-.8C49.5 20.2 40.8 6.2 35.3.1c.1.8.2 1 .4 1.4 0 .5.5 2.7 1.2 3.7-.2.9-.4 1.3.3 2.3-.4 1-.3 1.5.3 2.5-.2 1.1-.4 3.1.4 4.2-.4.7-1.1 1.8-.3 4-.3.8-.5 1.9-.1 2.7-.5.5-.8 1.7-.7 2.2-.4.3-.9 1.8-.5 2.3-.7.4-1.3 1.3-1 1.6-.7.3-1.1 1.6-.8 1.8-.4.3-1.2 2-.9 2.5-.8.7-1.6 1.3-2.3 1.9h.1s-2.1 4.7-.7 9.3c1.4-.9 2.8-1.6 4.1-2.3-.6-3-1.1-6.7-.7-9.2zM69 32.9c-.1 1-1.1 1.7-2.1 1.5-1-.1-1.8-1-1.6-2 .1-1 1.1-1.7 2.1-1.5 1 .1 1.7 1 1.6 2zm10.1.5c-1.6 2-3.6 5.7-3.7 6.2-.7.3-3.2.8-8.1 3.6.6-.5 1.5-1.5 1.5-1.5s7.4-8.4 10.2-10.4c2.7-2 1.7 0 .1 2.1z M77.9 28.9c-.4.1-.8.3-1.3.4-.3.1-.7.2-1 .3-.3.1-.6.2-.9.4.1.7-.2 1.4-.8 1.9l-.2.1c-.4.3-1.2.8-1.8 1.4-.1.1-.2.3-.4.5s-.4.4-.6.7c-.1.4-.2.8-.3 1.3v.1c1.9-2.3 4.4-4.9 7.3-7.1zM34.7 73.8c.1 0 3.4-3.3 7.2-7l-.3-.5c-3.6 3.9-6.9 7.5-6.9 7.5zm45.1-1.2l.2.3c6.5-7.3 11.9-10.5 12.8-11.1-4.9 4.7-8.6 9.1-11.4 13l1.2 1.6C88.3 67 96 60 97.7 58.3c-7.4 4-13.3 9.2-17.9 14.3z M76.5 112.4c-.3-2.9-1.1-9.7-.9-10.7 1.2-3.9 1-7 .7-9 .6-4.2 2.1-8.3 4-12.1l-1.7-1.5C74.4 86 73.2 90.7 73 91.2c-.8.1-1.9-.1-1.9-.1s.2.1 1.7.7c1.7.8.8 1-.6 1.4-1.4.3-4-1-4.8-1.8.2.8 1.3 2.3 2.9 2.8 2.2.5 1.9 1.4.5 1.7-1.2.3-3-.6-5.4-2.2 4.7 3.5 4.2 10.2 4.7 13.6.6 4.1 1.7 7.7 3 10.9-3.6-7.2-5.4-14.1-6.4-17.5-.1-.3-.2-.7-.3-1-.5-2-1.8-3.3-3.6-3.9-1.5-.5-3.2-.3-4.4-.2h-.7c-7.5.1-13-3.2-18.9-6.7-.5-.3-.9-.6-1.4-.8-.4-.2-.8-.5-1.2-.7.2-.1.6-.5.4-1.2.5.4 3.3 2.2 4.8 3-2.5-2.1-9.3-8-11.3-12-1.1-1.5-4.4-5.2-1-10.6 0 0-4 3.9-.4 9.6 1.1 1.6 1.7 3.5 2.4 6.4.1.5.3 1.1.4 1.7-8.2-6.1-11.6-12.2-13-16.5-.9-2.9-1.1-5.4-1-6.9v.8c.3-4 1.6-7.5 3.6-10.4-.8-.1-1.7-.1-2.6-.1-.7 2.6-1 5-1 6.8 0 0-.3 1-.4 2.8-.1 1.6.1 4.1 1 7.1 1.1 3.4 3 6.7 5.6 9.8 2.2 2.5 4.8 5 8 7.2.8 2.9 2 6.7 3.6 9.1.4-.8.4-1.7.1-2.2l-.2-.5c.5 0 .7-1.1.5-2.2.1-.1.5-.7.5-1.2.3.2.6.4.9.5.5.3 1 .6 1.4.8 3.8 2.3 7.5 4.5 11.6 5.7.6.6 2.7 3 3 4.8.6-1.5.7-1.5 1.2-1.9l.4-.4-1.6-1.3s1.8.6 2.1 1.1l-.4-.7s.7-.2 1.1.4c.7 0 2.2-.6 3.2-.2l-.5-.5h-.4.1c2.4-.2 6.4-.5 7.6 3.8.1.3.2.6.3 1 .8 3 2.1 8 4.6 13.8 1.8 4.3 4 8.2 6.4 11.6 3.1 4.7 6.2 7.4 7.2 8.3-7.1-10.9-7.7-19.5-7.9-22.3z M68.6 89c-11.5-6.5-17.7-14.6-21-20.1l-2.1 3.6c9.1 11.9 23.1 17.3 23.1 17.3l.3-.6c2.5-4.7 5.1-8.6 7.7-12l-.3-.3C71.1 83.6 68.6 89 68.6 89zm70.2-34.3c5.5 0 21.5 0 22 .2 0 0-4.9 17.1-6.6 23h11.1c2.5-8.7 4.9-17.1 6.8-23.1 8.3-.1 17.2-.1 22.2-.1.4-1.2 1.1-3.6 1.4-4.8-1.4 0-42.3-.1-55.6-.1-.5 1.4-1 3.8-1.3 4.9zm107.1-4.8h-36.8c-4.7 16.3-6.3 21.8-8.2 28 0 0 5.9.1 11.2.1 1.4-5.2 1.8-6.4 3.3-11.4 4.1 0 4.9-.1 7.9 0 .4.2 6.8 4.3 18.6 11.6 8.4-.1 13.9-.1 13.9-.1-10.1-6.2-15.4-9.6-17.7-11-.1-.1-.1-.2 0-.3 0-.1.1-.1.2-.1.5-.1 3.9-.1 5-.1 5 0 10.6.5 13.4-1.8 1.6-1.3 2-3.9 2.7-6.1.6-2 1.9-4.9.2-6.8-1.9-2.5-9.2-2-13.7-2zm2.8 7.2c-.3 1.3-.6 3.2-1.6 3.8-1.7.9-9.2.5-30.2.4.2-.8 1.4-4.9 1.9-6.5 10.4-.1 24.8 0 26.9-.1 1.4 0 2.7 0 3.3.9.1.5-.2 1.2-.3 1.5zM276 77.8c0 .1 0 .1 0 0 5.7.1 6.9.1 11 .1 3.7-12.7 4.1-14.1 8.1-28-5-.1-8.3-.1-10.9-.1-3.5 11.9-3.9 13.5-8.2 28zm82.3-27.9h-38.4c-3.6 12.8-4.4 15.4-8.2 28 5.6.1 6.7 0 11.1 0 1.1-3.5 1.4-4.9 3.4-11.4h28.5c4 0 9.7.2 12.1-1.3 1.8-1.1 2.1-2.4 2.9-4.6.3-1 .5-1.6 1-3.2.4-1.2.8-2 .5-3.8-.6-4.2-7.7-3.7-12.9-3.7zm1.2 7.3c-.3 1.1-.8 3.2-1.7 3.7-1.4.8-4.9.6-7.1.6-5.2 0-13.9-.1-23.1 0 .9-3 1.4-4.5 2-6.6 14.9-.1 24.6-.1 26.8-.1 1.1 0 2.6 0 3 .7.4.4.2 1.1.1 1.7zm30.3-7.3c-4.1 13.8-4.3 14.6-8.3 28 26.2.2 29.2.1 49.7 0 .4-1.4.9-2.5 1.3-4.8-21.5-.1-24.5 0-38.5-.1.4-1.1 1-3.3 2-6.5 6.9.1 20.9-.1 22.7-.1.6-1.9.9-3.3 1.4-4.9-5.6 0-13.4 0-22.6-.1.8-2.5 1.3-4.9 1.8-6.5 14-.1 29-.2 38.8-.2.4-1.3.9-2.9 1.5-4.8h-49.8zm121.9 2.6c-1.2-3.1-8.5-2.6-13-2.6h-38.1c-3.5 12.3-4.2 14.5-8.2 28 4.4.1 6.6.1 11.1 0 .9-2.6 1.7-5.4 3.5-11.5h7.7c6 3.7 10.4 6.3 18.6 11.6h14s-17-10.7-17.7-11.1c-.1-.1-.2-.4.1-.4h7.2c4.7 0 10.1.1 12.1-2.7 1-1.4 1.2-3.1 1.8-4.9.6-1.8 1.7-4.4.9-6.4zm-11.4 4.8c-.2 1.2-.8 3.1-1.7 3.6-1.3.8-4.9.6-7 .6-9.3.1-10.9 0-23.1.1.9-3 1.3-4.8 1.9-6.7 11.6-.1 24.4-.1 26.7-.1 1.2 0 2.7 0 3.2.7.3.5.1 1.2 0 1.8z M76.4 76.9c-2.3-2.1-4.9-4.5-7.2-6.4-1 .1-1.7.2-1.8.3-.2.7-.3 1.2-.5 1.8-.2.8-.2 1.7-.1 2.2.5 2.5 4.5 3 7.5 3.1h3.2l-1.1-1zm48.9-20.3c.4-1.4.6-3 .2-3.8-.8-1.7-1.3-1.7-2.7-2.3-1.3-.4-4.3-.6-5.9-.7-19 0-23.9.1-31.6.1-1.4-.1-4.1.3-5.2.6-1.5.5-4.1 1.6-5 3.2-1.8 3.4-1.9 4.5-2.2 5.8-.4 1.6-.5 3.4.1 4.5.2.2.3.4.5.6.1 0 .1.1.2.1 2.1 1.1 2.8 1.5 6.8 1.5 8.4 0 21.6.1 30 .1.7 0 .8.5.4 1.6-.5 1.5-1 3.4-1.4 4.5-.3.7-1.8.5-2.6.5H87.7c-1.5 0-5.4.1-7.7.1l.1.2c.5.7 1 1.4 1.6 2.2.4.6.8 1.1 1.2 1.7.2.2.3.5.5.7h27.4c3.7-.3 7.1-1 9-3.9.7-1.1 1.2-2.6 1.6-4 .3-1.1 1.5-4.6.8-5.8-1-1.7-2.9-2.1-5.2-2.5-.5 0-1.1-.1-1.6-.2-2.5-.1-5.5-.1-8.1-.1-5.1 0-22.7.2-23.3-.1-.5-.2-.2-.9-.1-1.4.3-1.2.8-2.6 1.1-3.9.2-.5.2-.9.5-1.2s1.2-.2 1.7-.2h25.3c.9 0 1.6-.1 1.9.4.1.6-.4 1.7-.6 2.3.6.3 8.7-.3 11.5-.6z M78.3 70.8c.2-.5.4-1 .5-1.3-.1 0-.6.1-1.4.1l.9 1.2z"/>
  </symbol>
  <symbol id="escape" viewBox="0 0 512 45.2">
    <path d="M81.7.2H29.2c-4.5 0-13.7 1-17.1 6.9L.8 27.4c-.8 1.5-3.3 7.8 7.4 7.8h54.1c.5 0 1.1-.4 1.4-.9l2.7-5c.3-.5.1-.9-.4-.9H25.6c-2.6 0-3.9-.9-2.2-4.1l7.9-14.6c1.2-1.8 2.3-2.5 8.2-2.5h38.3c.5 0 1.2-.4 1.4-.9l2.7-5.1c.5-.6.3-1-.2-1z M73.8 14.3H33.9c-.5 0-1.1.4-1.4.9l-2.7 4.9c-.3.5-.1.9.4.9H70c.5 0 1.1-.4 1.4-.9l2.7-4.9c.3-.5.2-.9-.3-.9zM511.4.2H459c-4.5 0-13.7 1-17.1 6.9l-11.2 20.3c-.8 1.5-3.3 7.8 7.4 7.8h54.1c.5 0 1.1-.4 1.4-.9l2.7-5c.3-.5.1-.9-.4-.9h-40.3c-2.6 0-3.9-.9-2.2-4.1l7.9-14.6c1.2-1.8 2.3-2.5 8.2-2.5h38.3c.5 0 1.2-.4 1.4-.9l2.7-5.1c.2-.6.1-1-.5-1z M503.6 14.3h-39.9c-.5 0-1.1.4-1.4.9l-2.7 4.9c-.3.5-.1.9.4.9h39.9c.5 0 1.1-.4 1.4-.9l2.7-4.9c.2-.5 0-.9-.4-.9zM167.1.1h-53.8c-8.1 0-13.7 4.2-14.6 5.7l-5 8.3c-3.1 5.5 5.1 7 7.6 6.9H131c5.7 0 2.6 4 1.5 5.4-1.8 2-6 1.8-6 1.8H87c-.5 0-1.1.4-1.4.9l-2.7 5c-.3.5-.1.9.4.9h53.8c8.1 0 13.7-4.2 14.6-5.7l5-8.3c3.1-5.5-5.1-7-7.6-6.9h-29.7c-5.7 0-2.6-4-1.5-5.4 1.8-2 6-1.8 6-1.8h39.8c.5 0 1.1-.4 1.4-.9l2.7-5c0-.5-.2-.9-.7-.9zm248.6 0h-44.8c-3.9.2-11 1.5-15.7 9-2 3.1-5.5 8.6-7.6 12.2v.1c-.3.5-.5.9-.7 1.3l-12.1 21.6c-.3.5-.1.9.4.9h19.3c.5 0 1.1-.4 1.4-.9l11.4-20.4c.7-1.3 4.9-8.5 5.6-9.8 1.1-1.9 3-5.1 8.8-5.1H397c1.3 0 3.7.7 2.1 3.6L396 18c-3.4 6.1-5 6.3-8.4 6.3h-15.3c-.5 0-1.1.4-1.4.9l-3.9 7c-.3.5-.1.9.4.9h25.1c10.6 0 16.6-2.8 20.8-8.8l.4-.4.7-1.2 7.9-13.9c0-.1.1-.1.1-.2 2.1-5-.8-8.5-6.7-8.5zM327 .1h-42.7c-10.8 0-15.1 7.9-16.9 11.1 0 .1-.1.1-.1.2l-12.8 22.9c-.3.5-.1.9.4.9h19.3c.5 0 1.1-.4 1.4-.9L288 11.9c2.6-4.6 4.4-4.9 7.5-4.9h15.8c4.7 0 2.8 3 1.7 5.1l-.5.8c-.7 1-1.6 1.2-2.3 1.2h-18.8c-.5 0-1.1.4-1.4.9l-2.7 5c-.3.5-.1.9.4.9h17.5c1.4.1 2.4.5 1.5 2.2l-6.2 11.1c-.3.5-.1.9.4.9h19.3c.5 0 1.1-.4 1.4-.9l12.8-22.9C341.4-.9 332.1.1 327 .1zM241.8 0h-41.1c-4.5 0-13.7 1-17.1 6.9l-11.2 20.3c-.8 1.5-3.3 7.8 7.4 7.8H223c12.5 0 16-7.4 17-9.2 1.1-2.1.3-2.4-1.1-2.4h-15.5c-2.2 0-2.7.2-3.3 1.1-1.8 2.8-3.5 3.5-5.2 3.7h-17.8c-2.6 0-3.9-.9-2.2-4.1l7.9-14.6c1.2-1.8 2.3-2.6 8.2-2.6h13.9c2.5.1 4 .5 3.4 2.3-.5 1.1-2.1 2.5 2.1 2.5h15.2c2.5 0 3.6-2.1 4.1-3.4 1.4-3 2.7-8.2-7.9-8.3z"/>
  </symbol>
</svg>
