<?xml version="1.0" encoding="utf-8"?>
<!-- Generator: Adobe Illustrator 22.0.1, SVG Export Plug-In . SVG Version: 6.00 Build 0)  -->
<svg version="1.1" id="Layer_1" xmlns="http://www.w3.org/2000/svg" xmlns:xlink="http://www.w3.org/1999/xlink" x="0px" y="0px"
	 viewBox="0 0 293 54" style="enable-background:new 0 0 293 54; fill: #424F5E" xml:space="preserve">
<g fill="#424F5E">
	<polygon points="21.2,18.7 -0.1,0.1 -0.1,8 21.2,26.4 36.2,13.3 36.2,40.4 42.8,46.1 42.8,46.1 42.8,46.1 42.8,46.1 42.8,0.1 	"/>
	<polygon points="6.4,47.1 6.4,21 -0.1,15.4 -0.1,53.8 42.8,53.8 35.2,47.1 	"/>
	<path d="M76.1,25.9c0.1-0.4,0.2-0.8,0.3-1.2c0,0.3,0.1,0.8,0.2,1.3c0.1,0.6,0.1,1,0.2,1.1l1.9,8.7h2.7L77,17.4L72,28.5
		c0,0.1-0.1,0.3-0.2,0.5c-0.4,0.8-0.6,1.4-0.8,1.9c-0.2-0.6-0.4-1.1-0.6-1.5c-0.2-0.4-0.3-0.7-0.4-0.9l-5.2-11.1l-4.2,18.4h2.6
		l1.9-8.7c0.1-0.4,0.2-0.9,0.2-1.3c0.1-0.4,0.1-0.8,0.1-1.2c0.1,0.4,0.2,0.7,0.4,1.1c0.1,0.4,0.3,0.7,0.5,1.1l4.6,9.6l4.6-9.4
		C75.8,26.7,75.9,26.3,76.1,25.9z"/>
	<path d="M82.4,35.8h3l2-4.5h7l2,4.5h3l-8.5-18.3L82.4,35.8z M91.3,23.9c0.1,0.3,0.2,0.6,0.3,0.9l1.8,4h-4.9l1.8-4
		c0.1-0.3,0.2-0.6,0.3-0.9c0.1-0.3,0.2-0.7,0.3-1.1C91.1,23.2,91.2,23.6,91.3,23.9z"/>
	<path d="M111.4,26.3c0.7-0.8,1-1.9,1-3.3c0-0.8-0.1-1.5-0.4-2.2c-0.3-0.7-0.7-1.2-1.3-1.6c-0.5-0.4-1-0.6-1.7-0.8
		c-0.6-0.2-1.6-0.2-2.7-0.2h-4v17.6h2.7v-7.9h0.3l5.9,7.9h3.2l-6.1-8C109.7,27.6,110.7,27.1,111.4,26.3z M105.2,25.7v-5.1h0.5
		c1.4,0,2.4,0.2,3,0.6c0.5,0.4,0.8,1.1,0.8,2.1c0,0.9-0.2,1.5-0.7,1.9c-0.5,0.4-1.5,0.5-3,0.5H105.2z"/>
	<path d="M133.1,37.4h3.4l-3.7-4c0.9-0.9,1.5-1.8,2-2.9c0.5-1.1,0.7-2.3,0.7-3.5c0-1.3-0.2-2.4-0.7-3.5c-0.5-1.1-1.2-2.1-2-3
		c-0.9-0.9-1.9-1.5-3-2c-1.1-0.5-2.3-0.7-3.6-0.7c-1.3,0-2.5,0.2-3.6,0.7c-1.1,0.5-2.2,1.1-3,2c-0.9,0.9-1.6,1.9-2,3
		c-0.5,1.1-0.7,2.3-0.7,3.6c0,1.3,0.2,2.4,0.7,3.6c0.5,1.1,1.1,2.1,2,3c0.9,0.8,1.9,1.5,3,2c1.1,0.5,2.3,0.7,3.5,0.7
		c0.9,0,1.7-0.1,2.5-0.3c0.8-0.2,1.6-0.5,2.4-1L133.1,37.4z M128.9,32.8c-0.4,0.2-0.9,0.4-1.4,0.5c-0.5,0.1-0.9,0.2-1.4,0.2
		c-1.8,0-3.4-0.6-4.6-1.9c-1.2-1.3-1.9-2.8-1.9-4.7c0-0.9,0.2-1.7,0.5-2.5c0.3-0.8,0.8-1.5,1.4-2.1c0.6-0.6,1.3-1.1,2.1-1.4
		c0.8-0.3,1.6-0.5,2.5-0.5c0.8,0,1.7,0.2,2.5,0.5s1.5,0.8,2.1,1.4c0.6,0.6,1.1,1.3,1.4,2.1c0.3,0.8,0.5,1.6,0.5,2.5
		c0,0.8-0.1,1.6-0.4,2.3c-0.2,0.7-0.6,1.4-1.2,2l-1.7-1.8h-3.5L128.9,32.8z"/>
	<path d="M151.5,28.8c0,1.6-0.4,2.8-1.1,3.6c-0.7,0.8-1.8,1.2-3.3,1.2c-1.5,0-2.6-0.4-3.3-1.2c-0.7-0.8-1.1-2-1.1-3.6V18.1h-2.8v11
		c0,2.4,0.6,4.2,1.8,5.4c1.2,1.2,3,1.8,5.4,1.8c2.4,0,4.2-0.6,5.4-1.8c1.2-1.2,1.8-3,1.8-5.3v-11h-2.9V28.8z"/>
	<rect x="159.6" y="18.1" width="2.9" height="17.6"/>
	<path d="M178.2,30.8c0-1.1-0.3-2.1-1-2.9c-0.6-0.8-1.8-1.5-3.6-2.4c-0.1,0-0.2-0.1-0.4-0.2c-2-0.9-3-1.9-3-3c0-0.7,0.2-1.2,0.7-1.6
		c0.5-0.4,1.1-0.6,1.8-0.6c0.5,0,1,0.1,1.4,0.4c0.4,0.3,0.8,0.7,1.2,1.2l2.2-1.2c-0.3-0.9-0.9-1.7-1.8-2.2c-0.9-0.5-2-0.8-3.3-0.8
		c-1.6,0-2.9,0.4-3.8,1.3c-1,0.9-1.5,2.1-1.5,3.5c0,1.1,0.3,2,1,2.8c0.6,0.8,1.9,1.6,3.9,2.6c0.1,0.1,0.3,0.1,0.6,0.3
		c1.7,0.8,2.6,1.7,2.6,2.8c0,0.8-0.3,1.4-0.8,1.9c-0.5,0.5-1.2,0.7-2,0.7c-0.9,0-1.6-0.2-2.2-0.6c-0.6-0.4-1-1-1.2-1.8l-2.3,1.1
		c0.3,1.3,0.9,2.3,1.9,3c1,0.7,2.2,1,3.7,1c1.8,0,3.2-0.5,4.3-1.5C177.6,33.8,178.2,32.4,178.2,30.8z"/>
	<rect x="183.1" y="28.9" width="6.4" height="2.4"/>
	<polygon points="197.4,18.1 194.5,18.1 194.5,35.8 203.8,35.8 203.8,33.2 197.4,33.2 	"/>
	<path d="M204.9,35.8h3l2-4.5h7l2,4.5h3l-8.5-18.3L204.9,35.8z M213.8,23.9c0.1,0.3,0.2,0.6,0.3,0.9l1.8,4H211l1.8-4
		c0.1-0.3,0.2-0.6,0.3-0.9c0.1-0.3,0.2-0.7,0.3-1.1C213.6,23.2,213.7,23.6,213.8,23.9z"/>
	<path d="M233.9,26.3c0.7-0.8,1-1.9,1-3.3c0-0.8-0.1-1.5-0.4-2.2c-0.3-0.7-0.7-1.2-1.3-1.6c-0.5-0.4-1-0.6-1.7-0.8
		c-0.6-0.2-1.6-0.2-2.7-0.2h-4v17.6h2.7v-7.9h0.3l5.9,7.9h3.2l-6.1-8C232.2,27.6,233.3,27.1,233.9,26.3z M227.7,25.7v-5.1h0.5
		c1.4,0,2.4,0.2,3,0.6c0.5,0.4,0.8,1.1,0.8,2.1c0,0.9-0.2,1.5-0.7,1.9c-0.5,0.4-1.5,0.5-3,0.5H227.7z"/>
	<path d="M245.7,25.6c-0.1,0-0.2-0.1-0.4-0.2c-2-0.9-3-1.9-3-3c0-0.7,0.2-1.2,0.7-1.6c0.5-0.4,1.1-0.6,1.8-0.6c0.5,0,1,0.1,1.4,0.4
		c0.4,0.3,0.8,0.7,1.2,1.2l2.2-1.2c-0.3-0.9-0.9-1.7-1.8-2.2s-2-0.8-3.3-0.8c-1.6,0-2.9,0.4-3.8,1.3s-1.5,2.1-1.5,3.5
		c0,1.1,0.3,2,1,2.8c0.6,0.8,1.9,1.6,3.9,2.6c0.1,0.1,0.3,0.1,0.6,0.3c1.7,0.8,2.6,1.7,2.6,2.8c0,0.8-0.3,1.4-0.8,1.9
		c-0.5,0.5-1.2,0.7-2,0.7c-0.9,0-1.6-0.2-2.2-0.6c-0.6-0.4-1-1-1.2-1.8l-2.3,1.1c0.3,1.3,0.9,2.3,1.9,3c1,0.7,2.2,1,3.7,1
		c1.8,0,3.2-0.5,4.3-1.5c1.1-1,1.6-2.3,1.6-4c0-1.1-0.3-2.1-1-2.9C248.7,27.1,247.5,26.4,245.7,25.6z"/>
	<path d="M270,20.4c-0.9-0.9-1.9-1.5-3-2c-1.1-0.5-2.3-0.7-3.6-0.7c-1.3,0-2.5,0.2-3.6,0.7c-1.1,0.5-2.2,1.1-3.1,2
		c-0.9,0.9-1.6,1.9-2,3c-0.5,1.1-0.7,2.3-0.7,3.6c0,1.3,0.2,2.5,0.7,3.6c0.5,1.1,1.1,2.1,2,3c0.9,0.9,1.9,1.5,3,2
		c1.2,0.5,2.4,0.7,3.6,0.7c1.3,0,2.4-0.2,3.6-0.7c1.1-0.5,2.2-1.1,3.1-2c0.9-0.9,1.6-1.9,2.1-3c0.5-1.1,0.7-2.3,0.7-3.5
		c0-1.2-0.2-2.4-0.7-3.5C271.5,22.3,270.9,21.3,270,20.4z M269.2,29.5c-0.3,0.8-0.8,1.5-1.4,2.1c-0.6,0.6-1.3,1.1-2.1,1.4
		c-0.8,0.3-1.6,0.5-2.4,0.5c-0.9,0-1.7-0.2-2.5-0.5c-0.8-0.3-1.5-0.8-2.1-1.4c-0.6-0.6-1.1-1.3-1.4-2.1c-0.3-0.8-0.5-1.6-0.5-2.5
		c0-0.9,0.2-1.7,0.5-2.6c0.3-0.8,0.8-1.5,1.4-2.1c0.6-0.6,1.3-1.1,2.1-1.4c0.8-0.3,1.6-0.5,2.5-0.5c0.9,0,1.7,0.2,2.5,0.5
		c0.8,0.3,1.5,0.8,2.1,1.4c0.6,0.6,1.1,1.3,1.4,2.1c0.3,0.8,0.5,1.6,0.5,2.5C269.7,27.9,269.6,28.7,269.2,29.5z"/>
	<path d="M290.3,18.1v12.2c-0.3-0.4-0.7-0.8-1-1.2c-0.3-0.3-0.6-0.7-0.9-1l-11.2-10.8v18.3h2.6V23.5c0.3,0.4,0.5,0.7,0.8,1
		c0.3,0.3,0.6,0.6,0.9,0.9l11.4,11V18.1H290.3z"/>
	<path d="M65.3,49.4c0.4-0.1,0.7-0.3,0.9-0.6c0.2-0.3,0.3-0.7,0.3-1.1c0-0.4-0.1-0.7-0.2-1c-0.1-0.3-0.3-0.6-0.6-0.7
		c-0.2-0.1-0.4-0.3-0.7-0.3c-0.3-0.1-0.7-0.1-1.3-0.1h-2.1v8.3h2.1c0.8,0,1.4,0,1.7-0.1c0.3-0.1,0.6-0.3,0.8-0.5
		c0.2-0.2,0.4-0.5,0.5-0.8c0.1-0.3,0.2-0.6,0.2-1c0-0.6-0.1-1-0.4-1.4C66.2,49.7,65.8,49.5,65.3,49.4z M62.9,46.6h0.5
		c0.7,0,1.1,0.1,1.4,0.3c0.2,0.2,0.4,0.5,0.4,1c0,0.4-0.1,0.7-0.4,0.9C64.5,48.9,64,49,63.4,49h-0.5V46.6z M65.3,52
		c-0.1,0.2-0.2,0.3-0.4,0.4c-0.1,0.1-0.3,0.2-0.6,0.2c-0.2,0-0.6,0.1-1.1,0.1h-0.5V50h0.5h0.4c0.3,0,0.5,0,0.7,0
		c0.2,0,0.3,0.1,0.4,0.1c0.2,0.1,0.4,0.3,0.5,0.5c0.1,0.2,0.2,0.4,0.2,0.7C65.5,51.6,65.4,51.8,65.3,52z"/>
	<path d="M82.4,46.6c-0.4-0.4-0.9-0.7-1.4-0.9c-0.5-0.2-1.1-0.3-1.7-0.3c-0.6,0-1.2,0.1-1.7,0.3c-0.5,0.2-1,0.5-1.4,0.9
		c-0.4,0.4-0.7,0.9-1,1.4c-0.2,0.5-0.3,1.1-0.3,1.7c0,0.6,0.1,1.2,0.3,1.7c0.2,0.5,0.5,1,1,1.4c0.4,0.4,0.9,0.7,1.4,0.9
		c0.5,0.2,1.1,0.3,1.7,0.3c0.6,0,1.1-0.1,1.7-0.3c0.5-0.2,1-0.5,1.4-0.9c0.4-0.4,0.7-0.9,1-1.4c0.2-0.5,0.3-1.1,0.3-1.7
		c0-0.6-0.1-1.1-0.3-1.7C83.1,47.5,82.8,47,82.4,46.6z M82,50.8c-0.2,0.4-0.4,0.7-0.7,1c-0.3,0.3-0.6,0.5-1,0.7
		c-0.4,0.2-0.7,0.2-1.1,0.2c-0.4,0-0.8-0.1-1.2-0.2c-0.4-0.2-0.7-0.4-1-0.7c-0.3-0.3-0.5-0.6-0.7-1c-0.2-0.4-0.2-0.8-0.2-1.2
		c0-0.4,0.1-0.8,0.2-1.2c0.2-0.4,0.4-0.7,0.7-1c0.3-0.3,0.6-0.5,1-0.7c0.4-0.2,0.8-0.2,1.2-0.2c0.4,0,0.8,0.1,1.2,0.2
		c0.4,0.2,0.7,0.4,1,0.7c0.3,0.3,0.5,0.6,0.7,1c0.2,0.4,0.2,0.8,0.2,1.2C82.2,50.1,82.2,50.5,82,50.8z"/>
	<path d="M90.8,53.8h1.4l1-2.1h3.3l0.9,2.1h1.4l-4-8.6L90.8,53.8z M95,48.2c0.1,0.2,0.1,0.3,0.2,0.4l0.8,1.9h-2.3l0.8-1.9
		c0.1-0.1,0.1-0.3,0.2-0.4c0.1-0.2,0.1-0.3,0.1-0.5C94.9,47.9,94.9,48.1,95,48.2z"/>
	<polygon points="105,46.7 107.2,46.7 107.2,53.8 108.5,53.8 108.5,46.7 110.7,46.7 110.7,45.5 105,45.5 	"/>
	<path d="M137,49.5h-3.3v1.1h2v0.1c0,0.6-0.2,1.1-0.7,1.5c-0.4,0.4-1,0.5-1.8,0.5c-0.9,0-1.6-0.3-2.2-0.9c-0.6-0.6-0.8-1.3-0.8-2.3
		c0-0.9,0.3-1.7,0.8-2.2c0.6-0.6,1.3-0.9,2.2-0.9c0.4,0,0.8,0.1,1.2,0.2c0.3,0.2,0.7,0.4,0.9,0.7l1-0.7c-0.4-0.5-0.9-0.9-1.4-1.1
		c-0.5-0.2-1.1-0.4-1.7-0.4c-0.6,0-1.2,0.1-1.7,0.3c-0.5,0.2-1,0.5-1.4,0.9c-0.4,0.4-0.7,0.9-0.9,1.4c-0.2,0.5-0.3,1.1-0.3,1.7
		c0,0.6,0.1,1.2,0.3,1.7c0.2,0.5,0.5,1,0.9,1.4c0.4,0.4,0.9,0.7,1.4,0.9c0.5,0.2,1.1,0.3,1.8,0.3c1.2,0,2.2-0.3,2.8-1
		c0.7-0.6,1-1.5,1-2.7c0-0.1,0-0.3,0-0.5C137,49.7,137,49.6,137,49.5z"/>
	<path d="M149.6,49.3c0.3-0.4,0.5-0.9,0.5-1.6c0-0.4-0.1-0.7-0.2-1c-0.1-0.3-0.3-0.6-0.6-0.8c-0.2-0.2-0.5-0.3-0.8-0.4
		c-0.3-0.1-0.7-0.1-1.3-0.1h-1.9v8.3h1.3v-3.7h0.2l2.7,3.7h1.5l-2.8-3.8C148.8,49.9,149.3,49.7,149.6,49.3z M146.7,49v-2.4h0.2
		c0.7,0,1.1,0.1,1.4,0.3c0.3,0.2,0.4,0.5,0.4,1c0,0.4-0.1,0.7-0.4,0.9c-0.2,0.2-0.7,0.2-1.4,0.2H146.7z"/>
	<path d="M165.9,46.6c-0.4-0.4-0.9-0.7-1.4-0.9c-0.5-0.2-1.1-0.3-1.7-0.3c-0.6,0-1.2,0.1-1.7,0.3c-0.5,0.2-1,0.5-1.4,0.9
		c-0.4,0.4-0.7,0.9-1,1.4c-0.2,0.5-0.3,1.1-0.3,1.7c0,0.6,0.1,1.2,0.3,1.7c0.2,0.5,0.5,1,1,1.4c0.4,0.4,0.9,0.7,1.4,0.9
		c0.5,0.2,1.1,0.3,1.7,0.3c0.6,0,1.1-0.1,1.7-0.3c0.5-0.2,1-0.5,1.4-0.9c0.4-0.4,0.7-0.9,1-1.4c0.2-0.5,0.3-1.1,0.3-1.7
		c0-0.6-0.1-1.1-0.3-1.7C166.7,47.5,166.4,47,165.9,46.6z M165.6,50.8c-0.2,0.4-0.4,0.7-0.7,1c-0.3,0.3-0.6,0.5-1,0.7
		c-0.4,0.2-0.7,0.2-1.1,0.2c-0.4,0-0.8-0.1-1.2-0.2c-0.4-0.2-0.7-0.4-1-0.7c-0.3-0.3-0.5-0.6-0.7-1c-0.2-0.4-0.2-0.8-0.2-1.2
		c0-0.4,0.1-0.8,0.2-1.2c0.2-0.4,0.4-0.7,0.7-1c0.3-0.3,0.6-0.5,1-0.7c0.4-0.2,0.8-0.2,1.2-0.2c0.4,0,0.8,0.1,1.2,0.2
		c0.4,0.2,0.7,0.4,1,0.7c0.3,0.3,0.5,0.6,0.7,1c0.2,0.4,0.2,0.8,0.2,1.2C165.8,50.1,165.7,50.5,165.6,50.8z"/>
	<path d="M181.1,50.5c0,0.7-0.2,1.3-0.5,1.7c-0.3,0.4-0.9,0.6-1.5,0.6c-0.7,0-1.2-0.2-1.5-0.6c-0.3-0.4-0.5-0.9-0.5-1.7v-5h-1.3v5.1
		c0,1.1,0.3,2,0.8,2.5c0.6,0.6,1.4,0.8,2.5,0.8s2-0.3,2.6-0.8c0.6-0.6,0.8-1.4,0.8-2.5v-5.1h-1.3V50.5z"/>
	<path d="M195.3,45.9c-0.2-0.2-0.5-0.3-0.7-0.3c-0.3-0.1-0.7-0.1-1.3-0.1h-2v8.3h1.3v-3.7h0.5h0.3c0.6,0,1,0,1.3-0.1
		c0.3-0.1,0.5-0.2,0.7-0.3c0.3-0.2,0.5-0.4,0.6-0.8c0.1-0.3,0.2-0.7,0.2-1.1c0-0.4-0.1-0.7-0.2-1.1
		C195.8,46.4,195.6,46.1,195.3,45.9z M194.4,48.7c-0.2,0.2-0.7,0.2-1.5,0.2h-0.3v-2.3h0.3c0.7,0,1.2,0.1,1.5,0.3
		c0.3,0.2,0.4,0.5,0.4,0.9C194.8,48.3,194.7,48.6,194.4,48.7z"/>
</g>
</svg>
